# xmcd
# Track frame offsets:
# 150
# 13335
# 26788
# 39413
# 52828
# 66425
# 80423
# 94318
# 107230
# 119380
# 132018
# 145043
# 157665
#
# Disc length: 2263 seconds
# Revision: 0
# Processed by: cddbd v1.4PL0 Copyright (c) Steve Scherf et al.
# Submitted via: VisiTrax 2.9.5.180 - For more info visit www.synapsa.com
#
DISCID=a808d50d
DTITLE=Johnson, Pete - Pete's Blues (House Rent Party)
DYEAR=2002
DGENRE=Blues
TTITLE0=Pete's Lonesome Blues
TTITLE1=Mr. Drum Meest Mr. Piano
TTITLE2=Mutiny in the Doghouse
TTITLE3=Mr. Clarinet Knocks Twice
TTITLE4=Ben Rides Out
TTITLE5=Page Mr. Trumpet
TTITLE6=J.C from K.C.
TTITLE7=Pete's Housewarming Blues
TTITLE8=Atomic Boogie
TTITLE9=Back Room Blues
TTITLE10=1280 Stomp
TTITLE11=I May Be Wonderful
TTITLE12=Man Wanted
EXTD=
EXTT0=
EXTT1=
EXTT2=
EXTT3=
EXTT4=
EXTT5=
EXTT6=
EXTT7=
EXTT8=
EXTT9=
EXTT10=
EXTT11=
EXTT12=
PLAYORDER=
